#define john-arm_width 80
#define john-arm_height 130
static char john-arm_bits[] = {
   0x00, 0x00, 0x00, 0x00, 0x81, 0x07, 0x03, 0x00, 0x00, 0x00, 0x00, 0x00,
   0x00, 0x00, 0x79, 0x00, 0x03, 0x00, 0x00, 0x00, 0x00, 0x00, 0x00, 0x80,
   0x07, 0xc0, 0x07, 0x00, 0x00, 0x00, 0x00, 0x00, 0x00, 0x80, 0x03, 0x38,
   0x06, 0x00, 0x00, 0x00, 0x00, 0x00, 0x00, 0x80, 0x41, 0x07, 0x06, 0x00,
   0x00, 0x00, 0x00, 0x00, 0x00, 0x80, 0xc1, 0x01, 0x0e, 0x00, 0x00, 0x00,
   0x00, 0x00, 0x00, 0x80, 0x03, 0xe6, 0x0f, 0x00, 0x00, 0x00, 0x00, 0x00,
   0x00, 0x00, 0x03, 0x19, 0x06, 0x00, 0x00, 0x00, 0x00, 0x00, 0x00, 0x00,
   0x03, 0x10, 0x06, 0x00, 0x00, 0x00, 0x00, 0x00, 0x00, 0x00, 0x0f, 0x18,
   0x06, 0x00, 0x00, 0x00, 0x00, 0x00, 0x00, 0x00, 0xff, 0x0f, 0x07, 0x00,
   0x00, 0x00, 0x00, 0x00, 0x00, 0x00, 0xfe, 0x03, 0x06, 0x00, 0x00, 0x00,
   0x00, 0x00, 0x00, 0x00, 0x07, 0x00, 0x06, 0x00, 0x00, 0x00, 0x00, 0x00,
   0x00, 0x00, 0x07, 0x00, 0x0c, 0x00, 0x00, 0x00, 0x00, 0x00, 0x00, 0x00,
   0x07, 0x20, 0x04, 0x00, 0x00, 0x00, 0x00, 0x00, 0x00, 0x00, 0x03, 0x18,
   0x0c, 0x00, 0x00, 0x00, 0x00, 0x00, 0x00, 0x00, 0xff, 0x07, 0x1f, 0x00,
   0x00, 0x00, 0x00, 0x00, 0x00, 0x00, 0x07, 0x80, 0x1f, 0x00, 0x00, 0x00,
   0x00, 0x00, 0x00, 0x00, 0x07, 0x40, 0x3c, 0x00, 0x00, 0x00, 0x00, 0x00,
   0x00, 0x00, 0x07, 0x30, 0x3e, 0x00, 0x00, 0x00, 0x00, 0x00, 0x00, 0x00,
   0x07, 0x88, 0x3a, 0x00, 0x00, 0x00, 0x00, 0x00, 0x00, 0x00, 0x07, 0x46,
   0x34, 0x00, 0x00, 0x00, 0x00, 0x00, 0x00, 0x00, 0x03, 0x30, 0x34, 0x00,
   0x00, 0x00, 0x00, 0x00, 0x00, 0x80, 0xff, 0x0f, 0x38, 0x00, 0x00, 0x00,
   0x00, 0x00, 0x00, 0x80, 0x02, 0x00, 0x78, 0x00, 0x00, 0x00, 0x00, 0x00,
   0x00, 0x00, 0x03, 0x00, 0x78, 0x00, 0x00, 0x00, 0x00, 0x00, 0x00, 0x00,
   0x03, 0x00, 0x58, 0x00, 0x00, 0x00, 0x00, 0x00, 0x00, 0x00, 0x07, 0x00,
   0x58, 0x00, 0x00, 0x00, 0x00, 0x00, 0x00, 0x00, 0x03, 0x00, 0x7c, 0x00,
   0x00, 0x00, 0x00, 0x00, 0x00, 0x00, 0x05, 0x00, 0x34, 0x00, 0x00, 0x00,
   0x00, 0x00, 0x00, 0x00, 0x06, 0x00, 0x36, 0x00, 0x00, 0x00, 0x00, 0x00,
   0x00, 0x00, 0x06, 0x80, 0x73, 0x00, 0x00, 0x00, 0x00, 0x00, 0x00, 0x00,
   0x06, 0x7c, 0x50, 0x00, 0x00, 0x00, 0x00, 0x00, 0x00, 0x00, 0x0a, 0x06,
   0xf0, 0x00, 0x00, 0x00, 0x00, 0x00, 0x00, 0x00, 0x1f, 0x00, 0xc0, 0x01,
   0x00, 0x00, 0x00, 0x00, 0x00, 0x80, 0x3f, 0x00, 0x60, 0x0f, 0x00, 0x00,
   0x00, 0x00, 0x00, 0xc0, 0xf9, 0x01, 0x18, 0x3e, 0x00, 0x00, 0x00, 0x00,
   0x00, 0xf0, 0x20, 0xff, 0x3f, 0x7e, 0x00, 0x00, 0x00, 0x00, 0x00, 0x3c,
   0x00, 0x07, 0x00, 0xe8, 0x03, 0x00, 0x00, 0x00, 0x80, 0x1f, 0xf0, 0x01,
   0x00, 0xea, 0x0f, 0x00, 0x00, 0x00, 0xe0, 0x0f, 0x28, 0x00, 0x80, 0xc8,
   0x1f, 0x00, 0x00, 0x00, 0xf0, 0x01, 0x10, 0x00, 0x80, 0x80, 0x7f, 0x00,
   0x00, 0x00, 0x78, 0x00, 0x08, 0x00, 0x40, 0x00, 0xfc, 0x00, 0x00, 0x00,
   0x1c, 0x00, 0x04, 0x00, 0x40, 0x00, 0xe0, 0x00, 0x00, 0x00, 0x0e, 0x00,
   0x02, 0x00, 0x00, 0x00, 0xc0, 0x01, 0x00, 0x00, 0x06, 0x00, 0x01, 0x00,
   0x00, 0x00, 0x80, 0x01, 0x00, 0x00, 0x03, 0x00, 0x01, 0x00, 0x00, 0x00,
   0x00, 0x03, 0x00, 0x80, 0x01, 0x80, 0x00, 0x00, 0x00, 0x00, 0x00, 0x07,
   0x00, 0xc0, 0x01, 0x60, 0x00, 0x00, 0x00, 0x00, 0x00, 0x06, 0x00, 0xc0,
   0x00, 0x10, 0x00, 0x00, 0x00, 0x00, 0x00, 0x06, 0x00, 0x60, 0x00, 0x10,
   0x00, 0x00, 0x00, 0x00, 0x00, 0x0e, 0x00, 0x70, 0x00, 0x00, 0x00, 0x00,
   0x00, 0x00, 0x00, 0x0c, 0x00, 0x30, 0x00, 0x00, 0x00, 0x00, 0x00, 0x00,
   0x00, 0x0c, 0x00, 0x18, 0x00, 0x00, 0x00, 0x00, 0x00, 0x00, 0x00, 0x0c,
   0x00, 0x18, 0x00, 0x00, 0x00, 0x38, 0x00, 0x00, 0x00, 0x0e, 0x00, 0x0c,
   0x00, 0x00, 0x00, 0x04, 0x00, 0x40, 0x00, 0x0e, 0x00, 0x0c, 0x18, 0x00,
   0x00, 0x02, 0x00, 0x40, 0x00, 0x0f, 0x00, 0x06, 0x08, 0x00, 0x00, 0x02,
   0x00, 0xc0, 0x00, 0x0e, 0x00, 0x06, 0x08, 0x08, 0x00, 0x01, 0x00, 0x60,
   0x00, 0x0e, 0x00, 0x06, 0x08, 0x18, 0xc0, 0x00, 0x00, 0x38, 0x00, 0x0e,
   0x00, 0x03, 0x0c, 0x0c, 0x60, 0x3c, 0x00, 0x14, 0x00, 0x1f, 0x00, 0x03,
   0x06, 0x0c, 0xe0, 0x03, 0x00, 0x0f, 0x00, 0x0f, 0x80, 0x03, 0x06, 0x0c,
   0x70, 0x78, 0xe0, 0x06, 0x80, 0x1e, 0x80, 0x03, 0x06, 0x1c, 0x70, 0x07,
   0xb8, 0x03, 0xc0, 0x19, 0xc0, 0x01, 0x02, 0x0c, 0xfc, 0x80, 0xff, 0x00,
   0xc0, 0x18, 0xc0, 0x00, 0x03, 0x0a, 0x3e, 0x40, 0x1e, 0x00, 0xf8, 0x18,
   0xe0, 0x84, 0x02, 0x0e, 0x1f, 0xe0, 0x07, 0x00, 0x7c, 0x18, 0x60, 0x4d,
   0x02, 0x87, 0xf9, 0xff, 0x01, 0xf8, 0x1f, 0x18, 0x60, 0xca, 0x04, 0xc3,
   0xff, 0xff, 0x07, 0x3f, 0x00, 0x18, 0x30, 0x94, 0xb4, 0xff, 0xff, 0xff,
   0x3f, 0x00, 0x00, 0x18, 0x30, 0x98, 0xf9, 0xff, 0x07, 0x80, 0xff, 0x01,
   0x00, 0x10, 0x30, 0xf0, 0xff, 0x3f, 0x00, 0x00, 0xf0, 0x07, 0x00, 0x30,
   0x70, 0xe0, 0xfb, 0x03, 0x00, 0x00, 0x00, 0x1f, 0x00, 0x20, 0x70, 0x80,
   0x7f, 0x00, 0x00, 0x00, 0x00, 0x7e, 0x00, 0x70, 0xb8, 0x80, 0x0f, 0x00,
   0x00, 0x00, 0x00, 0x78, 0x00, 0x70, 0x18, 0xc1, 0x07, 0x00, 0x00, 0x00,
   0x00, 0xf0, 0x00, 0xdc, 0x18, 0xf2, 0x01, 0x00, 0x00, 0x00, 0x00, 0xc0,
   0x01, 0xd4, 0x18, 0x7e, 0x00, 0x00, 0x00, 0x00, 0x00, 0x80, 0x07, 0xf4,
   0x18, 0x38, 0x00, 0x00, 0x00, 0x00, 0x00, 0x80, 0x07, 0xe2, 0x18, 0x18,
   0x00, 0x00, 0x00, 0x00, 0x00, 0x00, 0x0f, 0xe3, 0xf8, 0x0c, 0x00, 0x00,
   0x00, 0x00, 0x00, 0x00, 0x9e, 0xe1, 0x98, 0x0d, 0x00, 0x00, 0x00, 0x00,
   0x00, 0x00, 0xbe, 0xe0, 0x18, 0x04, 0x00, 0x00, 0x00, 0x00, 0x00, 0x00,
   0x3c, 0xe0, 0x08, 0x06, 0x00, 0x00, 0x00, 0x00, 0x00, 0x00, 0x78, 0xe0,
   0x0c, 0x06, 0x00, 0x00, 0x00, 0x00, 0x00, 0x00, 0x70, 0xe0, 0x0e, 0x03,
   0x00, 0x00, 0x00, 0x00, 0x00, 0x00, 0xe0, 0xe1, 0x0e, 0x03, 0x00, 0x00,
   0x00, 0x00, 0x00, 0x00, 0xe0, 0xe1, 0x0e, 0x01, 0x00, 0x00, 0x00, 0x00,
   0x00, 0x00, 0xc0, 0x61, 0x0e, 0x01, 0x00, 0x00, 0x00, 0x00, 0x00, 0x00,
   0xc0, 0x71, 0x8e, 0x01, 0x00, 0x00, 0x00, 0x00, 0x00, 0x00, 0xc0, 0x61,
   0x8e, 0x01, 0x00, 0x00, 0x00, 0x00, 0x00, 0x00, 0xa0, 0xc3, 0xc6, 0x01,
   0x00, 0x00, 0x00, 0x00, 0x00, 0x00, 0xa0, 0xc3, 0xc6, 0x01, 0x00, 0x00,
   0x00, 0x00, 0x00, 0x00, 0x20, 0xc3, 0x62, 0x01, 0x00, 0x00, 0x00, 0x00,
   0x00, 0x00, 0x10, 0xe3, 0x6a, 0x01, 0x00, 0x00, 0x00, 0x00, 0x00, 0x00,
   0x10, 0xe3, 0x7f, 0x01, 0x00, 0x00, 0x00, 0x00, 0x00, 0x00, 0x10, 0xfb,
   0x33, 0x03, 0x00, 0x00, 0x00, 0x00, 0x00, 0x00, 0x18, 0xfb, 0x33, 0x02,
   0x00, 0x00, 0x00, 0x00, 0x00, 0x00, 0x68, 0xeb, 0x33, 0x02, 0x00, 0x00,
   0x00, 0x00, 0x00, 0x00, 0x04, 0x63, 0x93, 0x07, 0x00, 0x00, 0x00, 0x00,
   0x00, 0x00, 0x04, 0x63, 0x11, 0x04, 0x00, 0x00, 0x00, 0x00, 0x00, 0x00,
   0x04, 0x43, 0x19, 0x04, 0x00, 0x00, 0x00, 0x00, 0x00, 0x00, 0x12, 0x43,
   0x19, 0x0c, 0x00, 0x00, 0x00, 0x00, 0x00, 0x00, 0xfe, 0x73, 0x39, 0x08,
   0x00, 0x00, 0x00, 0x00, 0x00, 0x00, 0xfe, 0xf3, 0x3b, 0x1e, 0x00, 0x00,
   0x00, 0x00, 0x00, 0x00, 0xfe, 0xe3, 0x33, 0xff, 0x00, 0x00, 0x00, 0x00,
   0x00, 0x00, 0xfe, 0xe3, 0xf3, 0xff, 0x00, 0x00, 0x00, 0x00, 0x00, 0x00,
   0xfe, 0xe3, 0xf3, 0x7f, 0x00, 0x00, 0x00, 0x00, 0x00, 0x00, 0xfc, 0xc3,
   0xf3, 0x3f, 0x00, 0x00, 0x00, 0x00, 0x00, 0x00, 0xfc, 0xc3, 0xe3, 0x3f,
   0x00, 0x00, 0x00, 0x00, 0x00, 0x00, 0xf8, 0xc1, 0xc7, 0x1f, 0x00, 0x00,
   0x00, 0x00, 0x00, 0x00, 0x80, 0xc3, 0xc7, 0x1f, 0x00, 0x00, 0x00, 0x00,
   0x00, 0x00, 0x80, 0xdf, 0x8f, 0x07, 0x00, 0x00, 0x00, 0x00, 0x00, 0x00,
   0x80, 0xff, 0xff, 0x00, 0x00, 0x00, 0x00, 0x00, 0x00, 0x00, 0xc0, 0xff,
   0xff, 0x00, 0x00, 0x00, 0x00, 0x00, 0x00, 0x00, 0xc0, 0x7f, 0xff, 0x00,
   0x00, 0x00, 0x00, 0x00, 0x00, 0x00, 0xe0, 0x7f, 0xfe, 0x01, 0x00, 0x00,
   0x00, 0x00, 0x00, 0x00, 0xe0, 0x7f, 0xfe, 0x01, 0x00, 0x00, 0x00, 0x00,
   0x00, 0x00, 0xe0, 0x7f, 0xfe, 0x01, 0x00, 0x00, 0x00, 0x00, 0x00, 0x00,
   0xe0, 0x7f, 0xfc, 0x01, 0x00, 0x00, 0x00, 0x00, 0x00, 0x00, 0xe0, 0x3f,
   0xfc, 0x01, 0x00, 0x00, 0x00, 0x00, 0x00, 0x00, 0xc0, 0x3f, 0xfc, 0x00,
   0x00, 0x00, 0x00, 0x00, 0x00, 0x00, 0x80, 0x1f, 0x78, 0x00, 0x00, 0x00,
   0x00, 0x00, 0x00, 0x00, 0x00, 0x00, 0x00, 0x00, 0x00, 0x00, 0x00, 0x00,
   0x00, 0x00, 0x00, 0x00, 0x00, 0x00, 0x00, 0x00, 0x00, 0x00, 0x00, 0x00,
   0x00, 0x00, 0x00, 0x00, 0x00, 0x00, 0x00, 0x00, 0x00, 0x00, 0x00, 0x00,
   0x00, 0x00, 0x00, 0x00, 0x00, 0x00, 0x00, 0x00, 0x00, 0x00, 0x00, 0x00,
   0x00, 0x00, 0x00, 0x00, 0x00, 0x00, 0x00, 0x00, 0x00, 0x00, 0x00, 0x00,
   0x00, 0x00, 0x00, 0x00, 0x00, 0x00, 0x00, 0x00, 0x00, 0x00, 0x00, 0x00,
   0x00, 0x00, 0x00, 0x00};
