#define l-eye_width 50
#define l-eye_height 50
static char l-eye_bits[] = {
   0x00, 0x00, 0x00, 0x00, 0x00, 0x00, 0x00, 0x00, 0x00, 0x00, 0x00, 0x00,
   0x00, 0x00, 0x00, 0x00, 0x00, 0x00, 0x00, 0x00, 0x00, 0x00, 0x00, 0xe0,
   0x3f, 0x00, 0x00, 0x00, 0x00, 0x00, 0xfc, 0xff, 0x01, 0x00, 0x00, 0x00,
   0x00, 0xff, 0xff, 0x07, 0x00, 0x00, 0x00, 0xc0, 0xff, 0xff, 0x1f, 0x00,
   0x00, 0x00, 0x60, 0x00, 0xe0, 0x3f, 0x00, 0x00, 0x00, 0x18, 0x00, 0x00,
   0xff, 0x00, 0x00, 0x00, 0x0c, 0x00, 0x00, 0xfc, 0x01, 0x00, 0x00, 0x06,
   0x00, 0x00, 0xf0, 0x03, 0x00, 0x00, 0x02, 0x00, 0x00, 0xe0, 0x03, 0x00,
   0x00, 0x01, 0x00, 0x00, 0xe0, 0x07, 0x00, 0x80, 0x80, 0x0f, 0x00, 0x80,
   0x0f, 0x00, 0xc0, 0x70, 0x72, 0x00, 0x00, 0x0f, 0x00, 0x40, 0x6c, 0xa2,
   0x01, 0x00, 0x1e, 0x00, 0x60, 0x43, 0x92, 0x03, 0x00, 0x1e, 0x00, 0x20,
   0xc3, 0x52, 0x05, 0x00, 0x3e, 0x00, 0xa0, 0x84, 0xca, 0x08, 0x00, 0x3e,
   0x00, 0xb0, 0x88, 0x6f, 0x08, 0x00, 0x3c, 0x00, 0x50, 0xf0, 0x3f, 0x1c,
   0x00, 0x7c, 0x00, 0xd0, 0xf1, 0xff, 0x13, 0x00, 0x7c, 0x00, 0x50, 0xf6,
   0x7f, 0x10, 0x00, 0x7c, 0x00, 0x38, 0xf8, 0xff, 0x20, 0x00, 0x7c, 0x00,
   0x38, 0xf8, 0xfc, 0x20, 0x00, 0x7c, 0x00, 0xf8, 0xff, 0xfc, 0x3f, 0x00,
   0x7c, 0x00, 0x38, 0xf8, 0xff, 0x20, 0x00, 0x7c, 0x00, 0x38, 0xfe, 0xff,
   0x20, 0x00, 0x7c, 0x00, 0xd0, 0xf1, 0xff, 0x31, 0x00, 0x7c, 0x00, 0x70,
   0xf0, 0x7f, 0x16, 0x00, 0x3e, 0x00, 0x70, 0xe8, 0x7f, 0x18, 0x00, 0x3e,
   0x00, 0xb0, 0xa4, 0xbf, 0x08, 0x00, 0x3e, 0x00, 0xe0, 0x62, 0x52, 0x09,
   0x00, 0x3f, 0x00, 0x60, 0x31, 0x62, 0x06, 0x00, 0x1f, 0x00, 0xe0, 0x12,
   0xa2, 0x03, 0x00, 0x0f, 0x00, 0xc0, 0x0c, 0xa2, 0x00, 0x80, 0x0f, 0x00,
   0xc0, 0x79, 0x72, 0x00, 0x80, 0x07, 0x00, 0x80, 0x83, 0x0f, 0x00, 0xc0,
   0x03, 0x00, 0x00, 0x03, 0x00, 0x00, 0xe0, 0x03, 0x00, 0x00, 0x06, 0x00,
   0x00, 0xf0, 0x01, 0x00, 0x00, 0x1c, 0x00, 0x00, 0xf8, 0x00, 0x00, 0x00,
   0x38, 0x00, 0x00, 0x3e, 0x00, 0x00, 0x00, 0xf0, 0x00, 0x00, 0x1f, 0x00,
   0x00, 0x00, 0xe0, 0x03, 0xe0, 0x0f, 0x00, 0x00, 0x00, 0x80, 0xff, 0xff,
   0x03, 0x00, 0x00, 0x00, 0x00, 0xfc, 0x7f, 0x00, 0x00, 0x00, 0x00, 0x00,
   0xc0, 0x07, 0x00, 0x00, 0x00, 0x00, 0x00, 0x00, 0x00, 0x00, 0x00, 0x00,
   0x00, 0x00, 0x00, 0x00, 0x00, 0x00, 0x00, 0x00, 0x00, 0x00, 0x00, 0x00,
   0x00, 0x00};
