#define r-eye_width 50
#define r-eye_height 50
static char r-eye_bits[] = {
   0x00, 0x00, 0x00, 0x00, 0x00, 0x00, 0x00, 0x00, 0x00, 0x00, 0x00, 0x00,
   0x00, 0x00, 0x00, 0x00, 0xc0, 0x1f, 0x00, 0x00, 0x00, 0x00, 0x00, 0xfc,
   0xff, 0x01, 0x00, 0x00, 0x00, 0x00, 0xff, 0xff, 0x07, 0x00, 0x00, 0x00,
   0xc0, 0xff, 0xc1, 0x1f, 0x00, 0x00, 0x00, 0xf0, 0x1f, 0x00, 0x7c, 0x00,
   0x00, 0x00, 0xf8, 0x07, 0x00, 0xf8, 0x00, 0x00, 0x00, 0xfc, 0x03, 0x00,
   0x80, 0x01, 0x00, 0x00, 0xfe, 0x00, 0x00, 0x00, 0x03, 0x00, 0x00, 0x7f,
   0x00, 0x00, 0x00, 0x06, 0x00, 0x80, 0x3f, 0x00, 0x00, 0x00, 0x0c, 0x00,
   0x80, 0x1f, 0x00, 0x00, 0x00, 0x08, 0x00, 0xc0, 0x1f, 0x00, 0x80, 0x0f,
   0x18, 0x00, 0xc0, 0x0f, 0x00, 0x70, 0x72, 0x10, 0x00, 0xe0, 0x0f, 0x00,
   0x6c, 0xa2, 0x21, 0x00, 0xe0, 0x07, 0x00, 0x43, 0x92, 0x23, 0x00, 0xf0,
   0x07, 0x00, 0xc3, 0x52, 0x65, 0x00, 0xf0, 0x03, 0x80, 0x84, 0xca, 0x48,
   0x00, 0xf0, 0x03, 0x80, 0x88, 0x6f, 0x48, 0x00, 0xf0, 0x01, 0x40, 0xf0,
   0x3f, 0x5c, 0x00, 0xf8, 0x01, 0xc0, 0xf1, 0xff, 0x93, 0x00, 0xf8, 0x01,
   0x40, 0xf6, 0x7f, 0x90, 0x00, 0xf8, 0x01, 0x20, 0xf8, 0xff, 0xa0, 0x00,
   0xf8, 0x01, 0x20, 0xf8, 0xfc, 0xa0, 0x00, 0xf8, 0x01, 0xe0, 0xff, 0xfc,
   0xbf, 0x00, 0xf8, 0x01, 0x20, 0xf8, 0xff, 0xa0, 0x00, 0xf8, 0x01, 0x20,
   0xfe, 0xff, 0xa0, 0x00, 0xf8, 0x01, 0xc0, 0xf1, 0xff, 0xf1, 0x00, 0xf8,
   0x01, 0x40, 0xf0, 0x7f, 0xd6, 0x00, 0xf0, 0x01, 0x40, 0xe8, 0x7f, 0x58,
   0x00, 0xf0, 0x03, 0x80, 0xa4, 0xbf, 0x48, 0x00, 0xf0, 0x03, 0x80, 0x62,
   0x52, 0x69, 0x00, 0xe0, 0x07, 0x00, 0x31, 0x62, 0x26, 0x00, 0xe0, 0x07,
   0x00, 0x12, 0xa2, 0x33, 0x00, 0xe0, 0x07, 0x00, 0x0c, 0xa2, 0x30, 0x00,
   0xc0, 0x0f, 0x00, 0x78, 0x72, 0x18, 0x00, 0x80, 0x0f, 0x00, 0x80, 0x0f,
   0x08, 0x00, 0x80, 0x1f, 0x00, 0x00, 0x00, 0x0c, 0x00, 0x00, 0x3f, 0x00,
   0x00, 0x00, 0x06, 0x00, 0x00, 0x7e, 0x00, 0x00, 0x00, 0x03, 0x00, 0x00,
   0xfc, 0x01, 0x00, 0x80, 0x01, 0x00, 0x00, 0xf8, 0x07, 0x00, 0xe0, 0x00,
   0x00, 0x00, 0xf0, 0x7f, 0x00, 0x78, 0x00, 0x00, 0x00, 0xc0, 0xff, 0x8f,
   0x1f, 0x00, 0x00, 0x00, 0x80, 0xff, 0xff, 0x0f, 0x00, 0x00, 0x00, 0x00,
   0xfc, 0xff, 0x01, 0x00, 0x00, 0x00, 0x00, 0xe0, 0x3f, 0x00, 0x00, 0x00,
   0x00, 0x00, 0x00, 0x00, 0x00, 0x00, 0x00, 0x00, 0x00, 0x00, 0x00, 0x00,
   0x00, 0x00};
